999
dxflib 2.0.4.8
  0
SECTION
  2
HEADER
  9
$ACADVER
  1
AC1015
  9
$HANDSEED
  5
FFFF
  9
$DIMASZ
 40
0.1
  9
$GRIDUNIT
 10
0.0
 20
0.0
  9
$DIMADEC
 70
2
  9
$DIMGAP
 40
0.025
  9
$SPLINESEGS
 70
8
  9
$AUPREC
 70
2
  9
$LUNITS
 70
4
  9
$DIMEXO
 40
0.025
  9
$INSUNITS
 70
1
  9
$DIMLUNIT
 70
4
  9
$DIMTXT
 40
0.1
  9
$GRIDMODE
 70
1
  9
$LUPREC
 70
4
  9
$DIMSTYLE
  2
Standard
  9
$PLIMMAX
 10
8.2677165354330722
 20
11.6929133858267722
  9
$PLIMMIN
 10
0.0
 20
0.0
  9
$DIMEXE
 40
0.05
  9
$DIMAUNIT
 70
0
  9
$AUNITS
 70
0
  0
ENDSEC
  0
SECTION
  2
TABLES
  0
TABLE
  2
VPORT
  5
8
100
AcDbSymbolTable
 70
1
  0
VPORT
  5
30
100
AcDbSymbolTableRecord
100
AcDbViewportTableRecord
  2
*Active
 70
0
 10
0.0
 20
0.0
 11
1.0
 21
1.0
 12
286.3055555555554861
 22
148.5
 13
0.0
 23
0.0
 14
10.0
 24
10.0
 15
10.0
 25
10.0
 16
0.0
 26
0.0
 36
1.0
 17
0.0
 27
0.0
 37
0.0
 40
297.0
 41
1.92798353909465
 42
50.0
 43
0.0
 44
0.0
 50
0.0
 51
0.0
 71
0
 72
100
 73
1
 74
3
 75
1
 76
1
 77
0
 78
0
281
0
 65
1
110
0.0
120
0.0
130
0.0
111
1.0
121
0.0
131
0.0
112
0.0
122
1.0
132
0.0
 79
0
146
0.0
  0
ENDTAB
  0
TABLE
  2
LTYPE
  5
5
100
AcDbSymbolTable
 70
21
  0
LTYPE
  5
14
100
AcDbSymbolTableRecord
100
AcDbLinetypeTableRecord
  2
ByBlock
 70
0
  3

 72
65
 73
0
 40
0.0
  0
LTYPE
  5
15
100
AcDbSymbolTableRecord
100
AcDbLinetypeTableRecord
  2
ByLayer
 70
0
  3

 72
65
 73
0
 40
0.0
  0
LTYPE
  5
16
100
AcDbSymbolTableRecord
100
AcDbLinetypeTableRecord
  2
CONTINUOUS
 70
0
  3
Solid line
 72
65
 73
0
 40
0.0
  0
LTYPE
  5
31
100
AcDbSymbolTableRecord
100
AcDbLinetypeTableRecord
  2
DOT
 70
0
  3
Dot . . . . . . . . . . . . . . . . . . . . . .
 72
65
 73
2
 40
6.3499999999999996
 49
0.0
 74
0
 49
-6.3499999999999996
 74
0
  0
LTYPE
  5
32
100
AcDbSymbolTableRecord
100
AcDbLinetypeTableRecord
  2
DOT2
 70
0
  3
Dot (.5x) .....................................
 72
65
 73
2
 40
3.1749999999999998
 49
0.0
 74
0
 49
-3.1749999999999998
 74
0
  0
LTYPE
  5
33
100
AcDbSymbolTableRecord
100
AcDbLinetypeTableRecord
  2
DOTX2
 70
0
  3
Dot (2x) .  .  .  .  .  .  .  .  .  .  .  .  .
 72
65
 73
2
 40
12.6999999999999993
 49
0.0
 74
0
 49
-12.6999999999999993
 74
0
  0
LTYPE
  5
34
100
AcDbSymbolTableRecord
100
AcDbLinetypeTableRecord
  2
DASHED
 70
0
  3
Dashed __ __ __ __ __ __ __ __ __ __ __ __ __ _
 72
65
 73
2
 40
19.0500000000000007
 49
12.6999999999999993
 74
0
 49
-6.3499999999999996
 74
0
  0
LTYPE
  5
35
100
AcDbSymbolTableRecord
100
AcDbLinetypeTableRecord
  2
DASHED2
 70
0
  3
Dashed (.5x) _ _ _ _ _ _ _ _ _ _ _ _ _ _ _ _ _
 72
65
 73
2
 40
9.5250000000000004
 49
6.3499999999999996
 74
0
 49
-3.1749999999999998
 74
0
  0
LTYPE
  5
36
100
AcDbSymbolTableRecord
100
AcDbLinetypeTableRecord
  2
DASHEDX2
 70
0
  3
Dashed (2x) ____  ____  ____  ____  ____  ___
 72
65
 73
2
 40
38.1000000000000014
 49
25.3999999999999986
 74
0
 49
-12.6999999999999993
 74
0
  0
LTYPE
  5
37
100
AcDbSymbolTableRecord
100
AcDbLinetypeTableRecord
  2
DASHDOT
 70
0
  3
Dash dot __ . __ . __ . __ . __ . __ . __ . __
 72
65
 73
4
 40
25.3999999999999986
 49
12.6999999999999993
 74
0
 49
-6.3499999999999996
 74
0
 49
0.0
 74
0
 49
-6.3499999999999996
 74
0
  0
LTYPE
  5
38
100
AcDbSymbolTableRecord
100
AcDbLinetypeTableRecord
  2
DASHDOT2
 70
0
  3
Dash dot (.5x) _._._._._._._._._._._._._._._.
 72
65
 73
4
 40
12.6999999999999993
 49
6.3499999999999996
 74
0
 49
-3.1749999999999998
 74
0
 49
0.0
 74
0
 49
-3.1749999999999998
 74
0
  0
LTYPE
  5
39
100
AcDbSymbolTableRecord
100
AcDbLinetypeTableRecord
  2
DASHDOTX2
 70
0
  3
Dash dot (2x) ____  .  ____  .  ____  .  ___
 72
65
 73
4
 40
50.7999999999999972
 49
25.3999999999999986
 74
0
 49
-12.6999999999999993
 74
0
 49
0.0
 74
0
 49
-12.6999999999999993
 74
0
  0
LTYPE
  5
3A
100
AcDbSymbolTableRecord
100
AcDbLinetypeTableRecord
  2
DIVIDE
 70
0
  3
Divide ____ . . ____ . . ____ . . ____ . . ____
 72
65
 73
6
 40
31.75
 49
12.6999999999999993
 74
0
 49
-6.3499999999999996
 74
0
 49
0.0
 74
0
 49
-6.3499999999999996
 74
0
 49
0.0
 74
0
 49
-6.3499999999999996
 74
0
  0
LTYPE
  5
3B
100
AcDbSymbolTableRecord
100
AcDbLinetypeTableRecord
  2
DIVIDE2
 70
0
  3
Divide (.5x) __..__..__..__..__..__..__..__.._
 72
65
 73
6
 40
15.875
 49
6.3499999999999996
 74
0
 49
-3.1749999999999998
 74
0
 49
0.0
 74
0
 49
-3.1749999999999998
 74
0
 49
0.0
 74
0
 49
-3.1749999999999998
 74
0
  0
LTYPE
  5
3C
100
AcDbSymbolTableRecord
100
AcDbLinetypeTableRecord
  2
DIVIDEX2
 70
0
  3
Divide (2x) ________  .  .  ________  .  .  _
 72
65
 73
6
 40
63.5
 49
25.3999999999999986
 74
0
 49
-12.6999999999999993
 74
0
 49
0.0
 74
0
 49
-12.6999999999999993
 74
0
 49
0.0
 74
0
 49
-12.6999999999999993
 74
0
  0
LTYPE
  5
3D
100
AcDbSymbolTableRecord
100
AcDbLinetypeTableRecord
  2
CENTER
 70
0
  3
Center ____ _ ____ _ ____ _ ____ _ ____ _ ____
 72
65
 73
4
 40
50.7999999999999972
 49
31.75
 74
0
 49
-6.3499999999999996
 74
0
 49
6.3499999999999996
 74
0
 49
-6.3499999999999996
 74
0
  0
LTYPE
  5
3E
100
AcDbSymbolTableRecord
100
AcDbLinetypeTableRecord
  2
CENTER2
 70
0
  3
Center (.5x) ___ _ ___ _ ___ _ ___ _ ___ _ ___
 72
65
 73
4
 40
28.5749999999999993
 49
19.0500000000000007
 74
0
 49
-3.1749999999999998
 74
0
 49
3.1749999999999998
 74
0
 49
-3.1749999999999998
 74
0
  0
LTYPE
  5
3F
100
AcDbSymbolTableRecord
100
AcDbLinetypeTableRecord
  2
CENTERX2
 70
0
  3
Center (2x) ________  __  ________  __  _____
 72
65
 73
4
 40
101.5999999999999943
 49
63.5
 74
0
 49
-12.6999999999999993
 74
0
 49
12.6999999999999993
 74
0
 49
-12.6999999999999993
 74
0
  0
LTYPE
  5
40
100
AcDbSymbolTableRecord
100
AcDbLinetypeTableRecord
  2
BORDER
 70
0
  3
Border __ __ . __ __ . __ __ . __ __ . __ __ .
 72
65
 73
6
 40
44.4500000000000028
 49
12.6999999999999993
 74
0
 49
-6.3499999999999996
 74
0
 49
12.6999999999999993
 74
0
 49
-6.3499999999999996
 74
0
 49
0.0
 74
0
 49
-6.3499999999999996
 74
0
  0
LTYPE
  5
41
100
AcDbSymbolTableRecord
100
AcDbLinetypeTableRecord
  2
BORDER2
 70
0
  3
Border (.5x) __.__.__.__.__.__.__.__.__.__.__.
 72
65
 73
6
 40
22.2250000000000014
 49
6.3499999999999996
 74
0
 49
-3.1749999999999998
 74
0
 49
6.3499999999999996
 74
0
 49
-3.1749999999999998
 74
0
 49
0.0
 74
0
 49
-3.1749999999999998
 74
0
  0
LTYPE
  5
42
100
AcDbSymbolTableRecord
100
AcDbLinetypeTableRecord
  2
BORDERX2
 70
0
  3
Border (2x) ____  ____  .  ____  ____  .  ___
 72
65
 73
6
 40
88.9000000000000057
 49
25.3999999999999986
 74
0
 49
-12.6999999999999993
 74
0
 49
25.3999999999999986
 74
0
 49
-12.6999999999999993
 74
0
 49
0.0
 74
0
 49
-12.6999999999999993
 74
0
  0
ENDTAB
  0
TABLE
  2
LAYER
  5
2
100
AcDbSymbolTable
 70
8
  0
LAYER
  5
10
100
AcDbSymbolTableRecord
100
AcDbLayerTableRecord
  2
0
 70
0
 62
7
  6
CONTINUOUS
370
0
390
F
  0
LAYER
  5
43
100
AcDbSymbolTableRecord
100
AcDbLayerTableRecord
  2
Guidelines
 70
0
 62
4
  6
DOT
370
0
390
F
  0
LAYER
  5
44
100
AcDbSymbolTableRecord
100
AcDbLayerTableRecord
  2
Measurements
 70
0
 62
1
  6
CONTINUOUS
370
0
390
F
  0
LAYER
  5
45
100
AcDbSymbolTableRecord
100
AcDbLayerTableRecord
  2
Joystick
 70
0
 62
7
  6
CONTINUOUS
370
0
390
F
  0
LAYER
  5
46
100
AcDbSymbolTableRecord
100
AcDbLayerTableRecord
  2
Joystick Dimm
 70
0
 62
1
  6
CONTINUOUS
370
0
390
F
  0
LAYER
  5
47
100
AcDbSymbolTableRecord
100
AcDbLayerTableRecord
  2
Proposed Layout
 70
0
 62
6
  6
CONTINUOUS
370
0
390
F
  0
LAYER
  5
48
100
AcDbSymbolTableRecord
100
AcDbLayerTableRecord
  2
Buttons
 70
0
 62
7
  6
CONTINUOUS
370
0
390
F
  0
LAYER
  5
49
100
AcDbSymbolTableRecord
100
AcDbLayerTableRecord
  2
Text
 70
0
 62
2
  6
CONTINUOUS
370
0
390
F
  0
ENDTAB
  0
TABLE
  2
STYLE
  5
3
100
AcDbSymbolTable
 70
1
  0
STYLE
  5
11
100
AcDbSymbolTableRecord
100
AcDbTextStyleTableRecord
  2
Standard
 70
0
 40
0.0
 41
0.75
 50
0.0
 71
0
 42
2.5
  3
txt
  4

  0
ENDTAB
  0
TABLE
  2
VIEW
  5
6
100
AcDbSymbolTable
 70
0
  0
ENDTAB
  0
TABLE
  2
UCS
  5
7
100
AcDbSymbolTable
 70
0
  0
ENDTAB
  0
TABLE
  2
APPID
  5
9
100
AcDbSymbolTable
 70
1
  0
APPID
  5
12
100
AcDbSymbolTableRecord
100
AcDbRegAppTableRecord
  2
ACAD
 70
0
  0
ENDTAB
  0
TABLE
  2
DIMSTYLE
  5
A
100
AcDbSymbolTable
 70
1
100
AcDbDimStyleTable
 71
0
  0
DIMSTYLE
105
27
100
AcDbSymbolTableRecord
100
AcDbDimStyleTableRecord
  2
Standard
 41
0.1
 42
0.025
 43
3.75
 44
0.05
 70
0
 73
0
 74
0
 77
1
 78
8
140
0.1
141
2.5
143
0.03937007874016
147
0.025
171
3
172
1
271
2
272
2
274
3
278
44
283
0
284
8
340
11
  0
ENDTAB
  0
TABLE
  2
BLOCK_RECORD
  5
1
100
AcDbSymbolTable
 70
1
  0
BLOCK_RECORD
  5
1F
100
AcDbSymbolTableRecord
100
AcDbBlockTableRecord
  2
*Model_Space
340
22
  0
BLOCK_RECORD
  5
1B
100
AcDbSymbolTableRecord
100
AcDbBlockTableRecord
  2
*Paper_Space
340
1E
  0
BLOCK_RECORD
  5
23
100
AcDbSymbolTableRecord
100
AcDbBlockTableRecord
  2
*Paper_Space0
340
26
  0
BLOCK_RECORD
  5
4A
100
AcDbSymbolTableRecord
100
AcDbBlockTableRecord
  2
Joystick
340
0
  0
BLOCK_RECORD
  5
4B
100
AcDbSymbolTableRecord
100
AcDbBlockTableRecord
  2
Buttons
340
0
  0
BLOCK_RECORD
  5
4C
100
AcDbSymbolTableRecord
100
AcDbBlockTableRecord
  2
Trackball
340
0
  0
ENDTAB
  0
ENDSEC
  0
SECTION
  2
BLOCKS
  0
BLOCK
  5
20
100
AcDbEntity
  8
0
100
AcDbBlockBegin
  2
*Model_Space
 70
0
 10
0.0
 20
0.0
 30
0.0
  3
*Model_Space
  1

  0
ENDBLK
  5
21
100
AcDbEntity
  8
0
100
AcDbBlockEnd
  0
BLOCK
  5
1C
100
AcDbEntity
 67
1
  8
0
100
AcDbBlockBegin
  2
*Paper_Space
 70
0
 10
0.0
 20
0.0
 30
0.0
  3
*Paper_Space
  1

  0
ENDBLK
  5
1D
100
AcDbEntity
 67
1
  8
0
100
AcDbBlockEnd
  0
BLOCK
  5
24
100
AcDbEntity
  8
0
100
AcDbBlockBegin
  2
*Paper_Space0
 70
0
 10
0.0
 20
0.0
 30
0.0
  3
*Paper_Space0
  1

  0
ENDBLK
  5
25
100
AcDbEntity
  8
0
100
AcDbBlockEnd
  0
BLOCK
  5
4D
100
AcDbEntity
  8
0
100
AcDbBlockBegin
  2
Joystick
 70
0
 10
0.0
 20
0.0
 30
0.0
  3
Joystick
  1

  0
CIRCLE
  5
4E
100
AcDbEntity
100
AcDbCircle
  8
Joystick
 62
256
370
-1
  6
ByLayer
 10
0.0
 20
0.0
 30
0.0
 40
0.625
  0
CIRCLE
  5
4F
100
AcDbEntity
100
AcDbCircle
  8
Joystick
 62
256
370
-1
  6
ByLayer
 10
1.25
 20
1.5
 30
0.0
 40
0.125
  0
CIRCLE
  5
50
100
AcDbEntity
100
AcDbCircle
  8
Joystick
 62
256
370
-1
  6
ByLayer
 10
-1.25
 20
1.5
 30
0.0
 40
0.125
  0
CIRCLE
  5
51
100
AcDbEntity
100
AcDbCircle
  8
Joystick
 62
256
370
-1
  6
ByLayer
 10
-1.25
 20
-1.5
 30
0.0
 40
0.125
  0
CIRCLE
  5
52
100
AcDbEntity
100
AcDbCircle
  8
Joystick
 62
256
370
-1
  6
ByLayer
 10
1.25
 20
-1.5
 30
0.0
 40
0.125
  0
ENDBLK
  5
53
100
AcDbEntity
  8
0
100
AcDbBlockEnd
  0
BLOCK
  5
54
100
AcDbEntity
  8
0
100
AcDbBlockBegin
  2
Buttons
 70
0
 10
0.0
 20
0.0
 30
0.0
  3
Buttons
  1

  0
CIRCLE
  5
55
100
AcDbEntity
100
AcDbCircle
  8
Buttons
 62
256
370
-1
  6
ByLayer
 10
0.0
 20
0.0
 30
0.0
 40
0.625
  0
ENDBLK
  5
56
100
AcDbEntity
  8
0
100
AcDbBlockEnd
  0
BLOCK
  5
57
100
AcDbEntity
  8
0
100
AcDbBlockBegin
  2
Trackball
 70
0
 10
0.0
 20
0.0
 30
0.0
  3
Trackball
  1

  0
LINE
  5
58
100
AcDbEntity
100
AcDbLine
  8
Joystick
 62
256
370
-1
  6
ByLayer
 10
0.0
 20
0.0
 30
0.0
 11
5.75
 21
0.0
 31
0.0
  0
LINE
  5
59
100
AcDbEntity
100
AcDbLine
  8
Joystick
 62
256
370
-1
  6
ByLayer
 10
5.75
 20
0.0
 30
0.0
 11
5.75
 21
-5.75
 31
0.0
  0
LINE
  5
5A
100
AcDbEntity
100
AcDbLine
  8
Joystick
 62
256
370
-1
  6
ByLayer
 10
5.75
 20
-5.75
 30
0.0
 11
0.0
 21
-5.75
 31
0.0
  0
LINE
  5
5B
100
AcDbEntity
100
AcDbLine
  8
Joystick
 62
256
370
-1
  6
ByLayer
 10
0.0
 20
-5.75
 30
0.0
 11
0.0
 21
0.0
 31
0.0
  0
ENDBLK
  5
5C
100
AcDbEntity
  8
0
100
AcDbBlockEnd
  0
ENDSEC
  0
SECTION
  2
ENTITIES
  0
LINE
  5
5D
100
AcDbEntity
100
AcDbLine
  8
Guidelines
 62
256
370
-1
  6
ByLayer
 10
5.9999999999999991
 20
12.5
 30
0.0
 11
43.0
 21
12.5
 31
0.0
  0
LINE
  5
5E
100
AcDbEntity
100
AcDbLine
  8
Guidelines
 62
256
370
-1
  6
ByLayer
 10
24.5
 20
15.0
 30
0.0
 11
24.5
 21
1.75
 31
0.0
  0
LINE
  5
5F
100
AcDbEntity
100
AcDbLine
  8
Guidelines
 62
256
370
-1
  6
ByLayer
 10
35.5
 20
14.9999999999999964
 30
0.0
 11
35.5
 21
1.7499999999999973
 31
0.0
  0
LINE
  5
60
100
AcDbEntity
100
AcDbLine
  8
Guidelines
 62
256
370
-1
  6
ByLayer
 10
13.5
 20
15.0000000000000036
 30
0.0
 11
13.5
 21
1.750000000000004
 31
0.0
  0
CIRCLE
  5
61
100
AcDbEntity
100
AcDbCircle
  8
0
 62
256
370
-1
  6
ByLayer
 10
13.5
 20
12.5
 30
0.0
 40
0.625
  0
CIRCLE
  5
62
100
AcDbEntity
100
AcDbCircle
  8
0
 62
256
370
-1
  6
ByLayer
 10
24.5
 20
12.5
 30
0.0
 40
0.625
  0
CIRCLE
  5
63
100
AcDbEntity
100
AcDbCircle
  8
0
 62
256
370
-1
  6
ByLayer
 10
35.5
 20
12.5
 30
0.0
 40
0.625
  0
ARC
  5
64
100
AcDbEntity
  8
0
 62
256
370
-1
  6
ByLayer
100
AcDbCircle
 10
3.1866224340431732
 20
9.1847496019704558
 30
0.0
 40
0.5
100
AcDbArc
 50
149.7435628364707725
 51
240.3762512488263212
  0
LINE
  5
65
100
AcDbEntity
100
AcDbLine
  8
0
 62
256
370
-1
  6
ByLayer
 10
2.7547329835939576
 20
9.4366851147324979
 30
0.0
 11
5.8552957157778582
 21
14.7519355127620422
 31
0.0
  0
ARC
  5
66
100
AcDbEntity
  8
0
 62
256
370
-1
  6
ByLayer
100
AcDbCircle
 10
6.2871851662270748
 20
14.5
 30
0.0
 40
0.5
100
AcDbArc
 50
90.0
 51
149.7435628364708293
  0
LINE
  5
67
100
AcDbEntity
100
AcDbLine
  8
0
 62
256
370
-1
  6
ByLayer
 10
6.2871851662270748
 20
15.0
 30
0.0
 11
42.7128148337729243
 21
15.0
 31
0.0
  0
ARC
  5
68
100
AcDbEntity
  8
0
 62
256
370
-1
  6
ByLayer
100
AcDbCircle
 10
42.7128148337729243
 20
14.5
 30
0.0
 40
0.5
100
AcDbArc
 50
30.2564371635292026
 51
90.0
  0
LINE
  5
69
100
AcDbEntity
100
AcDbLine
  8
0
 62
256
370
-1
  6
ByLayer
 10
43.1447042842221435
 20
14.751935512762044
 30
0.0
 11
46.2452670164060464
 21
9.4366851147324979
 31
0.0
  0
ARC
  5
6A
100
AcDbEntity
  8
0
 62
256
370
-1
  6
ByLayer
100
AcDbCircle
 10
45.8133775659568272
 20
9.1847496019704558
 30
0.0
 40
0.5
100
AcDbArc
 50
299.6237487511741051
 51
30.2564371635290215
  0
LINE
  5
6B
100
AcDbEntity
100
AcDbLine
  8
0
 62
256
370
-1
  6
ByLayer
 10
46.0605286782010523
 20
8.7501045425064792
 30
0.0
 11
33.8649345505978303
 21
1.8153549405360199
 31
0.0
  0
ARC
  5
6C
100
AcDbEntity
  8
0
 62
256
370
-1
  6
ByLayer
100
AcDbCircle
 10
33.6177834383536052
 20
2.25
 30
0.0
 40
0.5
100
AcDbArc
 50
270.0
 51
299.6237487511739346
  0
LINE
  5
6D
100
AcDbEntity
100
AcDbLine
  8
0
 62
256
370
-1
  6
ByLayer
 10
15.1350654494021661
 20
1.8153549405360234
 30
0.0
 11
2.9394713217989512
 21
8.7501045425064774
 31
0.0
  0
ARC
  5
6E
100
AcDbEntity
  8
0
 62
256
370
-1
  6
ByLayer
100
AcDbCircle
 10
15.3822165616463877
 20
2.25
 30
0.0
 40
0.5
100
AcDbArc
 50
240.3762512488262075
 51
270.0
  0
DIMENSION
  5
6F
100
AcDbEntity
  8
Measurements
 62
256
370
-1
  6
ByLayer
100
AcDbDimension
 10
42.9618451970009616
 20
19.9999999999999964
 30
0.0
 11
24.5
 21
20.0749999999999957
 31
0.0
 70
0
 71
5
 72
1
 41
1.0
 42
0.0
  1

  3
Standard
100
AcDbAlignedDimension
 13
6.0381548029990348
 23
14.9335710762845117
 33
0.0
 14
42.9618451970009616
 24
14.9335710762845117
 34
0.0
 50
0.0
100
AcDbRotatedDimension
  0
DIMENSION
  5
70
100
AcDbEntity
  8
Measurements
 62
256
370
-1
  6
ByLayer
100
AcDbDimension
 10
46.2962049077523261
 20
20.0
 30
0.0
 11
44.6290250523766474
 21
20.0749999999999993
 31
0.0
 70
0
 71
5
 72
1
 41
1.0
 42
0.0
  1

  3
Standard
100
AcDbAlignedDimension
 13
42.9618451970009616
 23
14.9335710762845117
 33
0.0
 14
46.2962049077523261
 24
9.0548351762330022
 34
0.0
 50
0.0
100
AcDbRotatedDimension
  0
DIMENSION
  5
71
100
AcDbEntity
  8
Measurements
 62
256
370
-1
  6
ByLayer
100
AcDbDimension
 10
49.0
 20
9.0548351762330022
 30
0.0
 11
48.9249999999999972
 21
11.994203126258757
 31
0.0
 70
0
 71
5
 72
1
 41
1.0
 42
0.0
  1

  3
Standard
100
AcDbAlignedDimension
 13
42.9618451970009616
 23
14.9335710762845117
 33
0.0
 14
46.2962049077523261
 24
9.0548351762330022
 34
0.0
 50
90.0
100
AcDbRotatedDimension
  0
DIMENSION
  5
72
100
AcDbEntity
  8
Measurements
 62
256
370
-1
  6
ByLayer
100
AcDbDimension
 10
49.0
 20
1.7666147862563482
 30
0.0
 11
48.9249999999999972
 21
5.4107249812446767
 31
0.0
 70
0
 71
5
 72
1
 41
1.0
 42
0.0
  1

  3
Standard
100
AcDbAlignedDimension
 13
46.2962049077523261
 23
9.0548351762330022
 33
0.0
 14
33.7456065001773879
 24
1.7666147862563499
 34
0.0
 50
90.0
100
AcDbRotatedDimension
  0
DIMENSION
  5
73
100
AcDbEntity
  8
Measurements
 62
256
370
-1
  6
ByLayer
100
AcDbDimension
 10
37.5
 20
15.0
 30
0.0
 11
37.4249999999999972
 21
13.75
 31
0.0
 70
0
 71
5
 72
1
 41
1.0
 42
0.0
  1

  3
Standard
100
AcDbAlignedDimension
 13
35.5
 23
12.5
 33
0.0
 14
35.5
 24
15.0
 34
0.0
 50
90.0
100
AcDbRotatedDimension
  0
DIMENSION
  5
74
100
AcDbEntity
  8
Measurements
 62
256
370
-1
  6
ByLayer
100
AcDbDimension
 10
35.5
 20
10.0
 30
0.0
 11
30.0
 21
10.0749999999999993
 31
0.0
 70
0
 71
5
 72
1
 41
1.0
 42
0.0
  1

  3
Standard
100
AcDbAlignedDimension
 13
24.5
 23
12.5
 33
0.0
 14
35.5
 24
12.5
 34
0.0
 50
0.0
100
AcDbRotatedDimension
  0
DIMENSION
  5
75
100
AcDbEntity
  8
Measurements
 62
256
370
-1
  6
ByLayer
100
AcDbDimension
 10
24.5
 20
12.5
 30
0.0
 11
25.1783164825185004
 21
13.1889085387707077
 31
0.0
 70
4
 71
5
 72
1
 41
1.0
 42
0.0
  1

  3
Standard
100
AcDbRadialDimension
 15
24.9717316771764111
 25
12.9099929569496652
 35
0.0
 40
0.0
  0
DIMENSION
  5
76
100
AcDbEntity
  8
Measurements
 62
256
370
-1
  6
ByLayer
100
AcDbDimension
 10
33.7456065001773879
 20
-0.0000000000000007
 30
0.0
 11
24.5
 21
0.0749999999999993
 31
0.0
 70
0
 71
5
 72
1
 41
1.0
 42
0.0
  1

  3
Standard
100
AcDbAlignedDimension
 13
15.2543934998226085
 23
1.7666147862563499
 33
0.0
 14
33.7456065001773879
 24
1.7666147862563499
 34
0.0
 50
0.0
100
AcDbRotatedDimension
  0
INSERT
  5
77
100
AcDbEntity
100
AcDbBlockReference
  8
Joystick
 62
256
370
-1
  6
ByLayer
  2
Joystick
 10
53.25
 20
2.5
 30
0.0
  0
DIMENSION
  5
78
100
AcDbEntity
  8
Joystick Dimm
 62
256
370
-1
  6
ByLayer
100
AcDbDimension
 10
54.5
 20
5.0
 30
0.0
 11
53.25
 21
5.0750000000000002
 31
0.0
 70
0
 71
5
 72
1
 41
1.0
 42
0.0
  1

  3
Standard
100
AcDbAlignedDimension
 13
52.0
 23
4.0
 33
0.0
 14
54.5
 24
4.0
 34
0.0
 50
0.0
100
AcDbRotatedDimension
  0
DIMENSION
  5
79
100
AcDbEntity
  8
Joystick Dimm
 62
256
370
-1
  6
ByLayer
100
AcDbDimension
 10
56.0
 20
0.9999999999999991
 30
0.0
 11
55.9249999999999972
 21
2.4999999999999996
 31
0.0
 70
0
 71
5
 72
1
 41
1.0
 42
0.0
  1

  3
Standard
100
AcDbAlignedDimension
 13
54.5
 23
4.0
 33
0.0
 14
54.5
 24
0.9999999999999993
 34
0.0
 50
90.0
100
AcDbRotatedDimension
  0
DIMENSION
  5
7A
100
AcDbEntity
  8
Joystick Dimm
 62
256
370
-1
  6
ByLayer
100
AcDbDimension
 10
54.5
 20
4.0
 30
0.0
 11
54.767129754849968
 21
4.3731957720279473
 31
0.0
 70
4
 71
5
 72
1
 41
1.0
 42
0.0
  1

  3
Standard
100
AcDbRadialDimension
 15
54.5883883476483192
 25
4.0883883476483183
 35
0.0
 40
0.0
  0
DIMENSION
  5
7B
100
AcDbEntity
  8
Joystick Dimm
 62
256
370
-1
  6
ByLayer
100
AcDbDimension
 10
55.0
 20
0.9999999999999992
 30
0.0
 11
54.9249999999999972
 21
1.7499999999999996
 31
0.0
 70
0
 71
5
 72
1
 41
1.0
 42
0.0
  1

  3
Standard
100
AcDbAlignedDimension
 13
53.25
 23
2.5
 33
0.0
 14
54.5
 24
0.9999999999999993
 34
0.0
 50
90.0
100
AcDbRotatedDimension
  0
DIMENSION
  5
7C
100
AcDbEntity
  8
Joystick Dimm
 62
256
370
-1
  6
ByLayer
100
AcDbDimension
 10
54.5
 20
4.5
 30
0.0
 11
53.875
 21
4.5750000000000002
 31
0.0
 70
0
 71
5
 72
1
 41
1.0
 42
0.0
  1

  3
Standard
100
AcDbAlignedDimension
 13
53.25
 23
2.5
 33
0.0
 14
54.5
 24
4.0
 34
0.0
 50
0.0
100
AcDbRotatedDimension
  0
DIMENSION
  5
7D
100
AcDbEntity
  8
Joystick Dimm
 62
256
370
-1
  6
ByLayer
100
AcDbDimension
 10
53.25
 20
2.5
 30
0.0
 11
53.8094505102885066
 21
3.2884943574848151
 31
0.0
 70
4
 71
5
 72
1
 41
1.0
 42
0.0
  1

  3
Standard
100
AcDbRadialDimension
 15
53.6501152497902964
 25
2.9801382997483596
 35
0.0
 40
0.0
  0
DIMENSION
  5
7E
100
AcDbEntity
  8
Measurements
 62
256
370
-1
  6
ByLayer
100
AcDbDimension
 10
13.5
 20
10.0
 30
0.0
 11
19.0
 21
10.0749999999999993
 31
0.0
 70
0
 71
5
 72
1
 41
1.0
 42
0.0
  1

  3
Standard
100
AcDbAlignedDimension
 13
24.5
 23
12.5
 33
0.0
 14
13.5
 24
12.5
 34
0.0
 50
0.0
100
AcDbRotatedDimension
  0
LINE
  5
7F
100
AcDbEntity
100
AcDbLine
  8
Guidelines
 62
256
370
-1
  6
ByLayer
 10
15.2795270466212418
 20
2.1305552446332507
 30
0.0
 11
18.3800897788051429
 21
7.445805642662795
 31
0.0
  0
LINE
  5
80
100
AcDbEntity
100
AcDbLine
  8
Guidelines
 62
256
370
-1
  6
ByLayer
 10
30.6199102211948535
 20
7.445805642662803
 30
0.0
 11
33.7204729533787599
 21
2.130555244633257
 31
0.0
  0
LINE
  5
81
100
AcDbEntity
100
AcDbLine
  8
Guidelines
 62
256
370
-1
  6
ByLayer
 10
44.694985650314095
 20
12.0943103137472718
 30
0.0
 11
32.1701915872868085
 21
4.78818044364803
 31
0.0
  0
LINE
  5
82
100
AcDbEntity
100
AcDbLine
  8
Guidelines
 62
256
370
-1
  6
ByLayer
 10
16.8298084127131915
 20
4.7881804436480229
 30
0.0
 11
4.3050143496859077
 21
12.0943103137472701
 31
0.0
  0
LINE
  5
83
100
AcDbEntity
100
AcDbLine
  8
Guidelines
 62
256
370
-1
  6
ByLayer
 10
5.7779591367384748
 20
7.6731365253981973
 30
0.0
 11
8.878521868922375
 21
12.9883869234277416
 31
0.0
  0
LINE
  5
84
100
AcDbEntity
100
AcDbLine
  8
Guidelines
 62
256
370
-1
  6
ByLayer
 10
15.3822165616463895
 20
7.75
 30
0.0
 11
15.3822165616463877
 21
1.75
 31
0.0
  0
LINE
  5
85
100
AcDbEntity
100
AcDbLine
  8
0
 62
256
370
-1
  6
ByLayer
 10
33.6177834383536052
 20
1.75
 30
0.0
 11
15.3822165616463877
 21
1.75
 31
0.0
  0
LINE
  5
86
100
AcDbEntity
100
AcDbLine
  8
Guidelines
 62
256
370
-1
  6
ByLayer
 10
33.6177834383536052
 20
7.75
 30
0.0
 11
33.6177834383536052
 21
1.75
 31
0.0
  0
LINE
  5
87
100
AcDbEntity
100
AcDbLine
  8
Guidelines
 62
256
370
-1
  6
ByLayer
 10
33.6177834383536052
 20
5.25
 30
0.0
 11
15.3822165616463895
 21
5.25
 31
0.0
  0
LINE
  5
88
100
AcDbEntity
100
AcDbLine
  8
Guidelines
 62
256
370
-1
  6
ByLayer
 10
18.8822165616463877
 20
7.7499999999999991
 30
0.0
 11
18.8822165616463877
 21
1.7499999999999991
 31
0.0
  0
LINE
  5
89
100
AcDbEntity
100
AcDbLine
  8
Guidelines
 62
256
370
-1
  6
ByLayer
 10
33.6431363743393703
 20
9.2093542319971053
 30
0.0
 11
36.7436991065232803
 21
3.8941038339675593
 31
0.0
  0
INSERT
  5
8A
100
AcDbEntity
100
AcDbBlockReference
  8
Proposed Layout
 62
256
370
-1
  6
ByLayer
  2
Joystick
 10
18.8822165616463877
 20
5.25
 30
0.0
 44
1.0
 45
1.0
  0
INSERT
  5
8B
100
AcDbEntity
100
AcDbBlockReference
  8
Proposed Layout
 62
256
370
-1
  6
ByLayer
  2
Joystick
 10
7.3282405028304245
 20
10.3307617244129695
 30
0.0
 50
150.3760000000000048
 44
1.0
 45
1.0
  0
INSERT
  5
8C
100
AcDbEntity
100
AcDbBlockReference
  8
Proposed Layout
 62
256
370
-1
  6
ByLayer
  2
Joystick
 10
35.1934177404313289
 20
6.5517290329823314
 30
0.0
 50
209.6239999999999952
 44
1.0
 45
1.0
  0
INSERT
  5
8D
100
AcDbEntity
100
AcDbBlockReference
  8
Buttons
 62
256
370
-1
  6
ByLayer
  2
Buttons
 10
53.0
 20
9.0
 30
0.0
  0
DIMENSION
  5
8E
100
AcDbEntity
  8
Measurements
 62
256
370
-1
  6
ByLayer
100
AcDbDimension
 10
17.0
 20
1.7500000000000002
 30
0.0
 11
16.9250000000000007
 21
3.5
 31
0.0
 70
0
 71
5
 72
0
 41
1.0
 42
0.0
  1

  3
Standard
100
AcDbAlignedDimension
 13
18.8822165616463877
 23
5.25
 33
0.0
 14
18.8822165616463877
 24
1.75
 34
0.0
 50
90.0
100
AcDbRotatedDimension
  0
DIMENSION
  5
8F
100
AcDbEntity
  8
Measurements
 62
256
370
-1
  6
ByLayer
100
AcDbDimension
 10
16.0
 20
1.7500000000000002
 30
0.0
 11
15.9250000000000007
 21
4.25
 31
0.0
 70
0
 71
5
 72
0
 41
1.0
 42
0.0
  1

  3
Standard
100
AcDbAlignedDimension
 13
17.6322165616463877
 23
6.75
 33
0.0
 14
17.6322165616463877
 24
1.75
 34
0.0
 50
90.0
100
AcDbRotatedDimension
  0
DIMENSION
  5
90
100
AcDbEntity
  8
Measurements
 62
256
370
-1
  6
ByLayer
100
AcDbDimension
 10
21.8822165616463877
 20
8.0
 30
0.0
 11
20.3822165616463877
 21
8.0749999999999993
 31
0.0
 70
0
 71
5
 72
0
 41
1.0
 42
0.0
  1

  3
Standard
100
AcDbAlignedDimension
 13
18.8822165616463877
 23
5.25
 33
0.0
 14
21.8822165616463877
 24
6.2499999999999991
 34
0.0
 50
0.0
100
AcDbRotatedDimension
  0
INSERT
  5
91
100
AcDbEntity
100
AcDbBlockReference
  8
Joystick
 62
256
370
-1
  6
ByLayer
  2
Trackball
 10
50.9537977419433545
 20
15.9855051739430127
 30
0.0
  0
LINE
  5
92
100
AcDbEntity
100
AcDbLine
  8
Guidelines
 62
256
370
-1
  6
ByLayer
 10
19.0
 20
15.0000000000000018
 30
0.0
 11
19.0
 21
1.750000000000002
 31
0.0
  0
LINE
  5
93
100
AcDbEntity
100
AcDbLine
  8
Guidelines
 62
256
370
-1
  6
ByLayer
 10
30.0
 20
14.9999999999999982
 30
0.0
 11
30.0
 21
1.7499999999999987
 31
0.0
  0
LINE
  5
94
100
AcDbEntity
100
AcDbLine
  8
Guidelines
 62
256
370
-1
  6
ByLayer
 10
5.9999999999999991
 20
10.5
 30
0.0
 11
43.0
 21
10.5
 31
0.0
  0
INSERT
  5
95
100
AcDbEntity
100
AcDbBlockReference
  8
Proposed Layout
 62
256
370
-1
  6
ByLayer
  2
Buttons
 10
19.0
 20
10.5
 30
0.0
 44
2.0
 45
2.0
  0
INSERT
  5
96
100
AcDbEntity
100
AcDbBlockReference
  8
Proposed Layout
 62
256
370
-1
  6
ByLayer
  2
Buttons
 10
30.0
 20
10.5
 30
0.0
 44
2.0
 45
2.0
  0
MTEXT
  5
97
100
AcDbEntity
100
AcDbMText
  8
Text
 62
256
370
-1
  6
ByLayer
 10
29.2692183386419487
 20
12.0765270787486099
 30
0.0
 40
0.5
 41
100.0
 71
1
 72
2
  1
Pause
  7
normallatin1
 50
0.0
 73
0
 44
1.0
  0
MTEXT
  5
98
100
AcDbEntity
100
AcDbMText
  8
Text
 62
256
370
-1
  6
ByLayer
 10
17.6686135093021512
 20
11.9575465163964054
 30
0.0
 40
0.5
 41
100.0
 71
1
 72
2
  1
Exit\~Game
  7
normallatin1
 50
0.0
 73
0
 44
1.0
  0
MTEXT
  5
99
100
AcDbEntity
100
AcDbMText
  8
Text
 62
256
370
-1
  6
ByLayer
 10
23.5581513457362028
 20
14.2776674822643663
 30
0.0
 40
0.5
 41
100.0
 71
1
 72
2
  1
Player\~1
  7
normallatin1
 50
0.0
 73
0
 44
1.0
  0
MTEXT
  5
9A
100
AcDbEntity
100
AcDbMText
  8
Text
 62
256
370
-1
  6
ByLayer
 10
34.5043630821388803
 20
14.1586869199121619
 30
0.0
 40
0.5
 41
100.0
 71
1
 72
2
  1
Player\~2
  7
normallatin1
 50
0.0
 73
0
 44
1.0
  0
MTEXT
  5
9B
100
AcDbEntity
100
AcDbMText
  8
Text
 62
256
370
-1
  6
ByLayer
 10
12.4929590469813192
 20
14.2181772010882632
 30
0.0
 40
0.5
 41
100.0
 71
1
 72
2
  1
Player\~3
  7
normallatin1
 50
0.0
 73
0
 44
1.0
  0
LINE
  5
9C
100
AcDbEntity
100
AcDbLine
  8
Guidelines
 62
256
370
-1
  6
ByLayer
 10
21.8822165616463877
 20
7.7499999999999982
 30
0.0
 11
21.8822165616463877
 21
1.7499999999999984
 31
0.0
  0
LINE
  5
9D
100
AcDbEntity
100
AcDbLine
  8
Guidelines
 62
256
370
-1
  6
ByLayer
 10
33.6177834383536052
 20
4.375
 30
0.0
 11
15.3822165616463877
 21
4.375
 31
0.0
  0
INSERT
  5
9E
100
AcDbEntity
100
AcDbBlockReference
  8
Proposed Layout
 62
256
370
-1
  6
ByLayer
  2
Buttons
 10
21.8822165616463877
 20
4.375
 30
0.0
 70
3
 71
2
 44
1.625
 45
1.625
  0
DIMENSION
  5
9F
100
AcDbEntity
  8
Measurements
 62
256
370
-1
  6
ByLayer
100
AcDbDimension
 10
23.5072165616463877
 20
8.0
 30
0.0
 11
22.6947165616463877
 21
8.0749999999999993
 31
0.0
 70
0
 71
5
 72
1
 41
1.0
 42
0.0
  1

  3
Standard
100
AcDbAlignedDimension
 13
21.8822165616463877
 23
6.0
 33
0.0
 14
23.5072165616463877
 24
6.0
 34
0.0
 50
0.0
100
AcDbRotatedDimension
  0
DIMENSION
  5
A0
100
AcDbEntity
  8
Measurements
 62
256
370
-1
  6
ByLayer
100
AcDbDimension
 10
25.1322165616463877
 20
8.0
 30
0.0
 11
24.3197165616463877
 21
8.0749999999999993
 31
0.0
 70
0
 71
5
 72
1
 41
1.0
 42
0.0
  1

  3
Standard
100
AcDbAlignedDimension
 13
23.5072165616463877
 23
6.0
 33
0.0
 14
25.1322165616463877
 24
6.0
 34
0.0
 50
0.0
100
AcDbRotatedDimension
  0
DIMENSION
  5
A1
100
AcDbEntity
  8
Measurements
 62
256
370
-1
  6
ByLayer
100
AcDbDimension
 10
26.25
 20
1.7499999999999998
 30
0.0
 11
26.1750000000000007
 21
3.0625
 31
0.0
 70
0
 71
5
 72
1
 41
1.0
 42
0.0
  1

  3
Standard
100
AcDbAlignedDimension
 13
25.1322165616463877
 23
4.375
 33
0.0
 14
25.1322165616463877
 24
1.75
 34
0.0
 50
90.0
100
AcDbRotatedDimension
  0
DIMENSION
  5
A2
100
AcDbEntity
  8
Measurements
 62
256
370
-1
  6
ByLayer
100
AcDbDimension
 10
26.5
 20
1.7499999999999998
 30
0.0
 11
26.4250000000000007
 21
3.875
 31
0.0
 70
0
 71
5
 72
1
 41
1.0
 42
0.0
  1

  3
Standard
100
AcDbAlignedDimension
 13
25.1322165616463877
 23
6.0
 33
0.0
 14
25.1322165616463877
 24
1.75
 34
0.0
 50
90.0
100
AcDbRotatedDimension
  0
LINE
  5
A3
100
AcDbEntity
100
AcDbLine
  8
Guidelines
 62
256
370
-1
  6
ByLayer
 10
16.4326087886843304
 20
4.0972415027219018
 30
0.0
 11
4.2370146610811172
 21
11.0319911046923558
 31
0.0
  0
LINE
  5
A4
100
AcDbEntity
100
AcDbLine
  8
Guidelines
 62
256
370
-1
  6
ByLayer
 10
44.7629853389188881
 20
11.0319911046923593
 30
0.0
 11
32.5673912113156661
 21
4.0972415027218991
 31
0.0
  0
LINE
  5
A5
100
AcDbEntity
100
AcDbLine
  8
Guidelines
 62
256
370
-1
  6
ByLayer
 10
36.2344730770346715
 20
10.7209673085693673
 30
0.0
 11
39.3350358092185814
 21
5.4057169105398213
 31
0.0
  0
LINE
  5
A6
100
AcDbEntity
100
AcDbLine
  8
Guidelines
 62
256
370
-1
  6
ByLayer
 10
8.3692958394337751
 20
6.1615234488259389
 30
0.0
 11
11.4698585716176744
 21
11.4767738468554832
 31
0.0
  0
INSERT
  5
A7
100
AcDbEntity
100
AcDbBlockReference
  8
Proposed Layout
 62
256
370
-1
  6
ByLayer
  2
Buttons
 10
9.5
 20
8.0
 30
0.0
 50
-29.6237489999999966
 70
3
 71
2
 44
1.625
 45
1.625
  0
INSERT
  5
A8
100
AcDbEntity
100
AcDbBlockReference
  8
Proposed Layout
 62
256
370
-1
  6
ByLayer
  2
Buttons
 10
38.25
 20
7.25
 30
0.0
 50
29.6237489999999966
 70
3
 71
2
 44
1.625
 45
1.625
  0
INSERT
  5
A9
100
AcDbEntity
100
AcDbBlockReference
  8
Guidelines
 62
256
370
-1
  6
ByLayer
  2
Trackball
 10
27.0
 20
9.0
 30
0.0
 44
2.0
 45
2.0
  0
LINE
  5
AA
100
AcDbEntity
100
AcDbLine
  8
Guidelines
 62
256
370
-1
  6
ByLayer
 10
29.875
 20
9.0
 30
0.0
 11
29.875
 21
3.2499999999999996
 31
0.0
  0
LINE
  5
AB
100
AcDbEntity
100
AcDbLine
  8
Guidelines
 62
256
370
-1
  6
ByLayer
 10
27.0
 20
6.125
 30
0.0
 11
32.75
 21
6.125
 31
0.0
  0
LINE
  5
AC
100
AcDbEntity
100
AcDbLine
  8
Guidelines
 62
256
370
-1
  6
ByLayer
 10
32.375
 20
9.0
 30
0.0
 11
32.375
 21
3.2499999999999991
 31
0.0
  0
LINE
  5
AD
100
AcDbEntity
100
AcDbLine
  8
Guidelines
 62
256
370
-1
  6
ByLayer
 10
27.375
 20
9.0000000000000018
 30
0.0
 11
27.375
 21
3.2500000000000004
 31
0.0
  0
CIRCLE
  5
AE
100
AcDbEntity
100
AcDbCircle
  8
Proposed Layout
 62
256
370
-1
  6
ByLayer
 10
32.375
 20
6.125
 30
0.0
 40
0.125
  0
CIRCLE
  5
AF
100
AcDbEntity
100
AcDbCircle
  8
Proposed Layout
 62
256
370
-1
  6
ByLayer
 10
27.375
 20
6.125
 30
0.0
 40
0.125
  0
LINE
  5
B0
100
AcDbEntity
100
AcDbLine
  8
Guidelines
 62
256
370
-1
  6
ByLayer
 10
27.0
 20
3.625
 30
0.0
 11
32.75
 21
3.625
 31
0.0
  0
LINE
  5
B1
100
AcDbEntity
100
AcDbLine
  8
Guidelines
 62
256
370
-1
  6
ByLayer
 10
27.0
 20
8.625
 30
0.0
 11
32.75
 21
8.625
 31
0.0
  0
CIRCLE
  5
B2
100
AcDbEntity
100
AcDbCircle
  8
Proposed Layout
 62
256
370
-1
  6
ByLayer
 10
29.875
 20
8.625
 30
0.0
 40
0.125
  0
CIRCLE
  5
B3
100
AcDbEntity
100
AcDbCircle
  8
Proposed Layout
 62
256
370
-1
  6
ByLayer
 10
29.875
 20
3.625
 30
0.0
 40
0.125
  0
CIRCLE
  5
B4
100
AcDbEntity
100
AcDbCircle
  8
Proposed Layout
 62
256
370
-1
  6
ByLayer
 10
29.875
 20
6.125
 30
0.0
 40
1.75
  0
DIMENSION
  5
B5
100
AcDbEntity
  8
Measurements
 62
256
370
-1
  6
ByLayer
100
AcDbDimension
 10
17.6322165616463877
 20
8.0
 30
0.0
 11
18.2572165616463877
 21
8.0749999999999993
 31
0.0
 70
0
 71
5
 72
1
 41
1.0
 42
0.0
  1

  3
Standard
100
AcDbAlignedDimension
 13
18.8822165616463877
 23
5.25
 33
0.0
 14
17.6322165616463877
 24
6.75
 34
0.0
 50
0.0
100
AcDbRotatedDimension
  0
DIMENSION
  5
B6
100
AcDbEntity
  8
Measurements
 62
256
370
-1
  6
ByLayer
100
AcDbDimension
 10
29.875
 20
9.75
 30
0.0
 11
27.5036082808231939
 21
9.8249999999999993
 31
0.0
 70
0
 71
5
 72
1
 41
1.0
 42
0.0
  1

  3
Standard
100
AcDbAlignedDimension
 13
25.1322165616463877
 23
6.0
 33
0.0
 14
29.875
 24
6.125
 34
0.0
 50
0.0
100
AcDbRotatedDimension
  0
DIMENSION
  5
B7
100
AcDbEntity
  8
Measurements
 62
256
370
-1
  6
ByLayer
100
AcDbDimension
 10
32.375
 20
9.75
 30
0.0
 11
31.125
 21
9.8249999999999993
 31
0.0
 70
0
 71
5
 72
1
 41
1.0
 42
0.0
  1

  3
Standard
100
AcDbAlignedDimension
 13
29.875
 23
6.125
 33
0.0
 14
32.375
 24
6.125
 34
0.0
 50
0.0
100
AcDbRotatedDimension
  0
DIMENSION
  5
B8
100
AcDbEntity
  8
Measurements
 62
256
370
-1
  6
ByLayer
100
AcDbDimension
 10
33.75
 20
1.7499999999999996
 30
0.0
 11
33.6749999999999972
 21
3.9375
 31
0.0
 70
0
 71
5
 72
1
 41
1.0
 42
0.0
  1

  3
Standard
100
AcDbAlignedDimension
 13
29.875
 23
6.125
 33
0.0
 14
29.875
 24
1.75
 34
0.0
 50
90.0
100
AcDbRotatedDimension
  0
DIMENSION
  5
B9
100
AcDbEntity
  8
Measurements
 62
256
370
-1
  6
ByLayer
100
AcDbDimension
 10
33.75
 20
8.625
 30
0.0
 11
33.6749999999999972
 21
7.375
 31
0.0
 70
0
 71
5
 72
1
 41
1.0
 42
0.0
  1

  3
Standard
100
AcDbAlignedDimension
 13
29.875
 23
6.125
 33
0.0
 14
29.875
 24
8.625
 34
0.0
 50
90.0
100
AcDbRotatedDimension
  0
DIMENSION
  5
BA
100
AcDbEntity
  8
Measurements
 62
256
370
-1
  6
ByLayer
100
AcDbDimension
 10
19.0
 20
16.5
 30
0.0
 11
21.75
 21
16.5749999999999993
 31
0.0
 70
0
 71
5
 72
1
 41
1.0
 42
0.0
  1

  3
Standard
100
AcDbAlignedDimension
 13
24.5
 23
12.5
 33
0.0
 14
19.0
 24
10.5
 34
0.0
 50
0.0
100
AcDbRotatedDimension
  0
DIMENSION
  5
BB
100
AcDbEntity
  8
Measurements
 62
256
370
-1
  6
ByLayer
100
AcDbDimension
 10
16.5
 20
15.0
 30
0.0
 11
16.4250000000000007
 21
12.75
 31
0.0
 70
0
 71
5
 72
1
 41
1.0
 42
0.0
  1

  3
Standard
100
AcDbAlignedDimension
 13
19.0
 23
10.5
 33
0.0
 14
19.0
 24
15.0
 34
0.0
 50
90.0
100
AcDbRotatedDimension
  0
ENDSEC
  0
SECTION
  2
OBJECTS
  0
DICTIONARY
  5
C
100
AcDbDictionary
280
0
281
1
  3
ACAD_GROUP
350
D
  3
ACAD_LAYOUT
350
1A
  3
ACAD_MLINESTYLE
350
17
  3
ACAD_PLOTSETTINGS
350
19
  3
ACAD_PLOTSTYLENAME
350
E
  3
AcDbVariableDictionary
350
BC
  0
DICTIONARY
  5
D
100
AcDbDictionary
280
0
281
1
  0
ACDBDICTIONARYWDFLT
  5
E
100
AcDbDictionary
281
1
  3
Normal
350
F
100
AcDbDictionaryWithDefault
340
F
  0
ACDBPLACEHOLDER
  5
F
  0
DICTIONARY
  5
17
100
AcDbDictionary
280
0
281
1
  3
Standard
350
18
  0
MLINESTYLE
  5
18
100
AcDbMlineStyle
  2
STANDARD
 70
0
  3

 62
256
 51
90.0
 52
90.0
 71
2
 49
0.5
 62
256
  6
BYLAYER
 49
-0.5
 62
256
  6
BYLAYER
  0
DICTIONARY
  5
19
100
AcDbDictionary
280
0
281
1
  0
DICTIONARY
  5
1A
100
AcDbDictionary
281
1
  3
Layout1
350
1E
  3
Layout2
350
26
  3
Model
350
22
  0
LAYOUT
  5
1E
100
AcDbPlotSettings
  1

  2
C:\Program Files\AutoCAD 2002\plotters\DWF ePlot (optimized for plotting).pc3
  4

  6

 40
0.0
 41
0.0
 42
0.0
 43
0.0
 44
0.0
 45
0.0
 46
0.0
 47
0.0
 48
0.0
 49
0.0
140
0.0
141
0.0
142
1.0
143
1.0
 70
688
 72
0
 73
0
 74
5
  7

 75
16
147
1.0
148
0.0
149
0.0
100
AcDbLayout
  1
Layout1
 70
1
 71
1
 10
0.0
 20
0.0
 11
420.0
 21
297.0
 12
0.0
 22
0.0
 32
0.0
 14
100000000000000000000.0
 24
100000000000000000000.0
 34
100000000000000000000.0
 15
-100000000000000000000.0
 25
-100000000000000000000.0
 35
-100000000000000000000.0
146
0.0
 13
0.0
 23
0.0
 33
0.0
 16
1.0
 26
0.0
 36
0.0
 17
0.0
 27
1.0
 37
0.0
 76
0
330
1B
  0
LAYOUT
  5
22
100
AcDbPlotSettings
  1

  2
C:\Program Files\AutoCAD 2002\plotters\DWF ePlot (optimized for plotting).pc3
  4

  6

 40
0.0
 41
0.0
 42
0.0
 43
0.0
 44
0.0
 45
0.0
 46
0.0
 47
0.0
 48
0.0
 49
0.0
140
0.0
141
0.0
142
1.0
143
1.0
 70
1712
 72
0
 73
0
 74
0
  7

 75
0
147
1.0
148
0.0
149
0.0
100
AcDbLayout
  1
Model
 70
1
 71
0
 10
0.0
 20
0.0
 11
12.0
 21
9.0
 12
0.0
 22
0.0
 32
0.0
 14
0.0
 24
0.0
 34
0.0
 15
0.0
 25
0.0
 35
0.0
146
0.0
 13
0.0
 23
0.0
 33
0.0
 16
1.0
 26
0.0
 36
0.0
 17
0.0
 27
1.0
 37
0.0
 76
0
330
1F
  0
LAYOUT
  5
26
100
AcDbPlotSettings
  1

  2
C:\Program Files\AutoCAD 2002\plotters\DWF ePlot (optimized for plotting).pc3
  4

  6

 40
0.0
 41
0.0
 42
0.0
 43
0.0
 44
0.0
 45
0.0
 46
0.0
 47
0.0
 48
0.0
 49
0.0
140
0.0
141
0.0
142
1.0
143
1.0
 70
688
 72
0
 73
0
 74
5
  7

 75
16
147
1.0
148
0.0
149
0.0
100
AcDbLayout
  1
Layout2
 70
1
 71
2
 10
0.0
 20
0.0
 11
12.0
 21
9.0
 12
0.0
 22
0.0
 32
0.0
 14
0.0
 24
0.0
 34
0.0
 15
0.0
 25
0.0
 35
0.0
146
0.0
 13
0.0
 23
0.0
 33
0.0
 16
1.0
 26
0.0
 36
0.0
 17
0.0
 27
1.0
 37
0.0
 76
0
330
23
  0
DICTIONARY
  5
BC
100
AcDbDictionary
281
1
  3
DIMASSOC
350
BE
  3
HIDETEXT
350
BD
  0
DICTIONARYVAR
  5
BD
100
DictionaryVariables
280
0
  1
2
  0
DICTIONARYVAR
  5
BE
100
DictionaryVariables
280
0
  1
1
  0
ENDSEC
  0
EOF
